<svg width="40" height="40" viewBox="0 0 279 305" fill="none" xmlns="http://www.w3.org/2000/svg">
<path d="M110.5 182.5H87.9506C86.1302 182.5 84.4536 181.511 83.5736 179.917L70.9371 157.035C69.0227 153.568 64.03 153.597 62.1557 157.085L49.915 179.867C49.0436 181.488 47.3515 182.5 45.5105 182.5H13.4247C8.79367 182.5 6.65121 188.252 10.154 191.282L35.2708 213.004C36.3689 213.954 37 215.334 37 216.786V241.833C37 245.444 40.7115 247.864 44.0163 246.408L64.0043 237.6C65.5599 236.914 67.3573 237.066 68.7759 238.003L93 254" stroke="black" stroke-width="11" stroke-linecap="round"/>
<path d="M168 182.5H190.549C192.37 182.5 194.046 181.511 194.926 179.917L207.563 157.035C209.477 153.568 214.47 153.597 216.344 157.085L228.585 179.867C229.456 181.488 231.148 182.5 232.989 182.5H265.075C269.706 182.5 271.849 188.252 268.346 191.282L243.229 213.004C242.131 213.954 241.5 215.334 241.5 216.786V241.833C241.5 245.444 237.789 247.864 234.484 246.408L214.496 237.6C212.94 236.914 211.143 237.066 209.724 238.003L185.5 254" stroke="black" stroke-width="11" stroke-linecap="round"/>
<path d="M115.998 211H70C65.1949 211 63.156 217.117 67 220L104.276 247.957C105.919 249.189 106.642 251.302 106.096 253.283L95.543 291.627C94.3164 296.084 99.275 299.676 103.127 297.121L136.832 274.769C138.458 273.691 140.563 273.657 142.223 274.682L178.513 297.096C182.519 299.571 187.412 295.642 185.862 291.197L172.721 253.502C171.996 251.422 172.717 249.113 174.497 247.815L212.598 220.04C216.509 217.19 214.493 211 209.653 211H163.943C161.87 211 160.011 209.72 159.272 207.784L144.285 168.533C142.634 164.208 136.498 164.257 134.915 168.608L120.697 207.709C119.978 209.685 118.1 211 115.998 211Z" stroke="black" fill="#c27e72" stroke-width="11" stroke-linecap="round"/>
<path d="M67 142C67 121.5 79.5 96 106.5 96C106.5 96 106.5 96 106.5 96C106.5 96 158 96 183.5 96C209 96 224.5 117 224.5 142M110 128V156M181.5 128V156M144 6C126 6 111.5 24 111.5 43C111.5 62 127.5 74 144 74C160.5 74 179.5 66 179.5 43C179.5 20 162 6 144 6Z" stroke="black" stroke-width="11" stroke-linecap="round"/>
</svg>
