<svg width="40" height="40" viewBox="0 0 279 305" fill="none" xmlns="http://www.w3.org/2000/svg">
<path d="M87.9506 182.5H101.004C105.028 182.5 107.404 187.011 105.127 190.329L93.8774 206.721C93.3059 207.554 93 208.541 93 209.551V244.706C93 248.69 88.5689 251.074 85.2447 248.879L68.7759 238.003C67.3573 237.066 65.5599 236.914 64.0043 237.6L44.0163 246.408C40.7115 247.864 37 245.444 37 241.833V216.786C37 215.334 36.3689 213.954 35.2708 213.004L10.154 191.282C6.65121 188.252 8.79367 182.5 13.4247 182.5H45.5105C47.3515 182.5 49.0436 181.488 49.915 179.867L62.1557 157.085C64.03 153.597 69.0227 153.568 70.9371 157.035L83.5736 179.917C84.4536 181.511 86.1302 182.5 87.9506 182.5Z" fill="#FFEE51" stroke="black" stroke-width="11" stroke-linecap="round"/>
<path d="M190.549 182.5H180.743C176.197 182.5 174.01 188.075 177.343 191.166L199.912 212.1C201.464 213.539 201.941 215.798 201.105 217.742L192.115 238.63C190.152 243.192 195.319 247.516 199.463 244.779L209.724 238.003C211.143 237.066 212.94 236.914 214.496 237.6L234.484 246.408C237.789 247.864 241.5 245.444 241.5 241.833V216.786C241.5 215.334 242.131 213.954 243.229 213.004L268.346 191.282C271.849 188.252 269.706 182.5 265.075 182.5H232.989C231.148 182.5 229.456 181.488 228.585 179.867L216.344 157.085C214.47 153.597 209.477 153.568 207.563 157.035L194.926 179.917C194.046 181.511 192.37 182.5 190.549 182.5Z" fill="#FFED50" stroke="black" stroke-width="11" stroke-linecap="round"/>
<path d="M67 142C67 121.5 79.5 96 106.5 96C106.5 96 106.5 96 106.5 96C106.5 96 158 96 183.5 96C209 96 224.5 117 224.5 142M110 128V156M181.5 128V156M144 6C126 6 111.5 24 111.5 43C111.5 62 127.5 74 144 74C160.5 74 179.5 66 179.5 43C179.5 20 162 6 144 6Z" stroke="black" stroke-width="11" stroke-linecap="round"/>
<path d="M115.998 211H70C65.1949 211 63.156 217.117 67 220L104.276 247.957C105.919 249.189 106.642 251.302 106.096 253.283L95.543 291.627C94.3164 296.084 99.275 299.676 103.127 297.121L136.832 274.769C138.458 273.691 140.563 273.657 142.223 274.682L178.513 297.096C182.519 299.571 187.412 295.642 185.862 291.197L172.721 253.502C171.996 251.422 172.717 249.113 174.497 247.815L212.598 220.04C216.509 217.19 214.493 211 209.653 211H163.943C161.87 211 160.011 209.72 159.272 207.784L144.285 168.533C142.634 164.208 136.498 164.257 134.915 168.608L120.697 207.709C119.978 209.685 118.1 211 115.998 211Z" fill="#C27E72" stroke="black" stroke-width="11" stroke-linecap="round"/>
</svg>
